<?xml version="1.0" standalone="no"?>
<!DOCTYPE svg PUBLIC "-//W3C//DTD SVG 20010904//EN"
 "http://www.w3.org/TR/2001/REC-SVG-20010904/DTD/svg10.dtd">
<svg version="1.0" xmlns="http://www.w3.org/2000/svg"
 width="520.000000pt" height="520.000000pt" viewBox="0 0 520.000000 520.000000"
 preserveAspectRatio="xMidYMid meet">
<metadata>
Created by potrace 1.11, written by Peter Selinger 2001-2013
</metadata>
<g transform="translate(0.000000,520.000000) scale(0.100000,-0.100000)"
fill="#000000" stroke="none">
<path d="M488 4495 c-2 -2 -18 -6 -37 -8 -48 -8 -148 -59 -197 -101 -60 -51
-116 -141 -136 -216 -15 -57 -17 -125 -17 -545 -1 -511 1 -529 50 -632 16 -36
112 -138 373 -400 l351 -353 733 729 c402 401 732 732 732 737 0 14 -693 695
-734 721 -34 22 -86 44 -141 60 -19 6 -971 13 -977 8z"/>
<path d="M3745 4487 c-27 -4 -79 -22 -115 -39 -60 -29 -154 -120 -1282 -1248
l-1217 -1216 602 -601 c476 -475 613 -606 654 -627 137 -68 289 -68 428 1 39
20 280 255 1131 1106 1153 1154 1115 1113 1143 1237 13 58 15 969 2 1037 -23
120 -122 253 -229 307 -101 51 -123 53 -612 52 -250 0 -477 -4 -505 -9z"/>
</g>
</svg>
